# xmcd CD database file
#
# Track frame offsets:
#	150
#	27403
#	54562
#	78954
#	106009
#	136807
#	162130
#
# Disc length: 2429 seconds
#
# Revision: 0
# Processed by: cddbd v1.4PL0 Copyright (c) Steve Scherf et al.
# Submitted via: CDex 1.50
#
DISCID=4a097b07
DTITLE=Bob James - Obsession
DYEAR=1900
DGENRE=Jazz
TTITLE0=Obsession
TTITLE1=Gone Hollywood
TTITLE2=3 A.M.
TTITLE3=Rousseau
TTITLE4=Rain
TTITLE5=Steady
TTITLE6=Feel The Fire
EXTD=
EXTT0=
EXTT1=
EXTT2=
EXTT3=
EXTT4=
EXTT5=
EXTT6=
PLAYORDER=
